<svg id="Слой_1" data-name="Слой 1" xmlns="http://www.w3.org/2000/svg" viewBox="0 0 500 213.36"><defs><style>.cls-1{fill:#f9c766;}.cls-2{fill:#fff;}</style></defs><title>davy jones</title><path class="cls-1" d="M13.18,125.66V17.59H36.09q13.36,0,20.27,7.29t6.9,20.64V96.07q0,15.18-7.36,22.38t-21.17,7.21Zm15.48-93.5v78.93h7.13q6.52,0,9.26-3.26t2.73-10.25V45.52q0-6.37-2.58-9.86t-9.41-3.5Z"/><path class="cls-1" d="M69,125.66,93.17,17.59h12.9L130.2,125.66H114.72l-4.55-23.22H89.07l-4.56,23.22Zm38.25-37.79L99.69,48.71h-.3L91.8,87.87Z"/><path class="cls-1" d="M184.69,17.59,162.53,125.66H148.87l-22-108.07h16.4L155.55,93h.3L168.3,17.59Z"/><path class="cls-1" d="M208.37,125.66V80L187.12,17.59h16.39l12.45,43h.3l12.45-43H245.1L223.85,80v45.68Z"/><path class="cls-2" d="M323.47,54.41a1.25,1.25,0,0,1,.91,1.34c0,.72-.31,1.07-.91,1.07a13.87,13.87,0,0,0-2.5-.27h-1.59a9,9,0,0,0-3,.41,5,5,0,0,0-2.27,2A143.7,143.7,0,0,0,303.92,78.1Q298.46,90,293.23,101.52q-5.22,11.24-10.45,21.81t-10.69,20.74q-3.63,7-8.75,14.86a107,107,0,0,1-9.66,13q-5,5.63-10.68,11.11a79.88,79.88,0,0,1-12.39,9.77,68.23,68.23,0,0,1-14.44,7,52.38,52.38,0,0,1-17.27,2.68q-10.23,0-17.51-3.48a5.19,5.19,0,0,1-1.7-1.2,3.47,3.47,0,0,1-.34-2.55c0-1.25,0-3,.11-5.21s.19-4.6.34-7.1l1.59-.53a20.29,20.29,0,0,0,5.8,11.91q4.89,5,15.8,5a40.27,40.27,0,0,0,17.62-3.88q8.05-3.89,16.93-14.32a164,164,0,0,0,16-23.15q8.06-13.79,16.7-30.92,3.87-7.75,8.19-16.72t8.41-18.07q4.1-9.09,7.73-17.53t6.14-14.85a4.66,4.66,0,0,0,.22-1.61c0-.71-.45-1.07-1.36-1.07a83.59,83.59,0,0,0-10.23.67A95.39,95.39,0,0,0,268,63a49.33,49.33,0,0,0-8.86,4.28,22,22,0,0,0-6.94,7.49A21.43,21.43,0,0,0,249.13,86a13.55,13.55,0,0,0,.46,3.75c.3.54.15.8-.46.8a8.92,8.92,0,0,1-2.38-3.21c-.84-1.6-1.25-4.1-1.25-7.49q0-4.28,3.63-9.77t13.19-9.23a58.43,58.43,0,0,1,7.95-2.41q4.55-1.07,11.6-2T299,55Q309.14,54.41,323.47,54.41Z"/><path class="cls-2" d="M368.48,128a51.58,51.58,0,0,1-9.44,11.1,18.43,18.43,0,0,1-12.61,4.95,14.5,14.5,0,0,1-7.62-2.27,16.05,16.05,0,0,1-6-6.83q-1.6,4.29-4.1,9.77a95,95,0,0,1-5.91,11,65.94,65.94,0,0,1-7.61,10,43,43,0,0,1-9,7.5,15.65,15.65,0,0,1-6.82,2.14q-8.17,0-8.18-8.57a35.22,35.22,0,0,1,1.48-9.9,65.79,65.79,0,0,1,3.75-9.9,95.38,95.38,0,0,1,4.88-9.1,55.82,55.82,0,0,1,4.89-7,50.12,50.12,0,0,1,10.91-10.44,28.37,28.37,0,0,1,13.19-5.08,48.75,48.75,0,0,1,1.36-5,4.47,4.47,0,0,1,3.18-3.34l2.28-.54a7.06,7.06,0,0,0,2-.8,1.12,1.12,0,0,1,1.37-.13c.45.26.52.76.22,1.47a24.54,24.54,0,0,0-2.38,7.49,56.76,56.76,0,0,0-.8,9.91A27.74,27.74,0,0,0,340,136.85q2.39,4.82,8.29,4.82a15.15,15.15,0,0,0,10.69-4.55,46.65,46.65,0,0,0,7.95-9.91c.31-.89.8-1.16,1.48-.8S369.08,127.3,368.48,128ZM331,129.89a45.8,45.8,0,0,1-.68-5.62c-.16-2.14-.23-4.19-.23-6.16,0-.89-.31-1.34-.91-1.34a8.91,8.91,0,0,0-5.23,2,30.63,30.63,0,0,0-5.45,5.35,82.6,82.6,0,0,0-5.46,7.63,97.16,97.16,0,0,0-5,8.83,107.51,107.51,0,0,0-5.34,12.72,35.18,35.18,0,0,0-2.16,13,10.33,10.33,0,0,0,.57,3.48,2.44,2.44,0,0,0,2.61,1.6q3.85,0,8.41-5.08a78.16,78.16,0,0,0,8.64-11.91,99.94,99.94,0,0,0,6.93-13.79A46.23,46.23,0,0,0,331,129.89Z"/><path class="cls-2" d="M421.21,139a142,142,0,0,1-9.43,13.51,91,91,0,0,1-11.37,12.18,69,69,0,0,1-12.27,8.84A25,25,0,0,1,376,177a13.06,13.06,0,0,1-5-.93q-2.28-.94-2.28-4.69a27.13,27.13,0,0,1,2.28-9.5q2.26-5.75,5.34-12.18t6.36-13.11A125.29,125.29,0,0,0,388,124.27a3.43,3.43,0,0,0,.11-2.28c-.23-.62-.72-.67-1.48-.13a70.68,70.68,0,0,0-5.91,5.08q-3.4,3.23-6.93,6.83T367,141.13a76,76,0,0,0-5.34,6.69q-3.65,6.69-6.25,12.31t-6.48,12.58c-.61,1.07-1.07,1.61-1.37,1.61-.76,0-1.4-1-1.93-2.95a20.35,20.35,0,0,1-.8-3.74c0-1.61.95-3.79,2.85-6.56s4-5.84,6.25-9.23q3.63-8.57,7.5-18.07t6.59-17a2.19,2.19,0,0,1,2.05-1.33,3.27,3.27,0,0,1,2.5,1.33,4.51,4.51,0,0,1,1.13,3c0,.71-1.1,3.17-3.29,7.36a137.37,137.37,0,0,0-6.48,14.59q4.32-4.56,9.43-9.64t9.78-9.37q4.65-4.27,8.18-7.09t4.89-2.81a2.17,2.17,0,0,1,1.7,1.2,4.23,4.23,0,0,1,.8,2.28,7.89,7.89,0,0,1-1.14,3.21q-2.51,4.29-6.14,11t-6.93,13.79q-3.3,7.09-5.57,13.51t-2.27,10.18q0,3.21,1.14,4.41a4.78,4.78,0,0,0,3.63,1.21q3.87,0,9.1-3.48a84.35,84.35,0,0,0,10.79-8.7,99.14,99.14,0,0,0,10.57-11.65,89.51,89.51,0,0,0,8.19-12.31.94.94,0,0,1,1.36-.4C422,137.25,422,137.92,421.21,139Z"/><path class="cls-2" d="M466.45,141.67a123.37,123.37,0,0,1-9.21,11.64,91,91,0,0,1-11.59,11,63.24,63.24,0,0,1-13,8,31.7,31.7,0,0,1-13.3,3.08q-10.68,0-10.68-11.24A45.92,45.92,0,0,1,412,148a70.8,70.8,0,0,1,8.52-16A59.75,59.75,0,0,1,432,119.58q6.25-5,11.93-5c2.13,0,3.6.45,4.44,1.34a4.92,4.92,0,0,1,1.25,3.48,16.89,16.89,0,0,1-1.71,7,23.68,23.68,0,0,1-5.11,7.09,28,28,0,0,1-8.64,5.62,31.15,31.15,0,0,1-12.5,2.28,47.19,47.19,0,0,0-2.5,7.63,41.54,41.54,0,0,0-1.37,10.57q0,11,8.41,11a23.07,23.07,0,0,0,10.8-2.94,61.13,61.13,0,0,0,10.8-7.36,83.75,83.75,0,0,0,9.66-9.64,96.69,96.69,0,0,0,7.39-9.77.81.81,0,0,1,1-.27A1.07,1.07,0,0,1,466.45,141.67Zm-23.87-20.88c0-2.32-1-3.48-2.95-3.48a7.31,7.31,0,0,0-4.66,2,26.64,26.64,0,0,0-4.66,5.22,69.65,69.65,0,0,0-4.32,7,63.57,63.57,0,0,0-3.41,7.23,4.36,4.36,0,0,0,1.59.4,16.23,16.23,0,0,0,1.82.14q6.58,0,11.59-5.49A18.64,18.64,0,0,0,442.58,120.79Z"/><path class="cls-2" d="M488.5,124.54c-.46.89-.84,1-1.14.26-.91-2.31-2.8-3.48-5.68-3.48a11.32,11.32,0,0,0-6.37,2.15,7.23,7.23,0,0,0-3.18,6.42,9,9,0,0,0,1.14,4.28c.75,1.43,1.82,3.3,3.18,5.62q1.82,3.21,3.41,6.43a14.89,14.89,0,0,1,1.59,6.69q0,7-2.73,11.37a23.87,23.87,0,0,1-6.47,7.09,22.18,22.18,0,0,1-7.62,3.62,27.85,27.85,0,0,1-6.14.93q-13.86,0-15.23-11c.76-.53,1.63-1.2,2.62-2a10.35,10.35,0,0,0,2.16-2.27c.3,0,.53.36.68,1.07A18.15,18.15,0,0,0,453,170a9.85,9.85,0,0,0,7.5,3.48,27.7,27.7,0,0,0,4.32-.41,11.34,11.34,0,0,0,4.66-1.87,12.77,12.77,0,0,0,3.75-4.15,14.09,14.09,0,0,0,1.59-7.23,17.69,17.69,0,0,0-1.14-6.42,40.33,40.33,0,0,0-2.5-5.35l-2.73-5.35a12.79,12.79,0,0,1-1.36-5.89,15.3,15.3,0,0,1,1.93-7,29.22,29.22,0,0,1,4.89-6.83,32.48,32.48,0,0,1,6.48-5.22,13.37,13.37,0,0,1,6.93-2.14c2.42,0,3.64.9,3.64,2.68-.46.9-.91,1.92-1.37,3.08S488.8,123.65,488.5,124.54Z"/></svg>